{
  "accessors": [
    {
      "bufferView": 2,
      "componentType": 5126,
      "count": 65532,
      "max": [
        156.61013793945313,
        52.23907470703125,
        61.4915771484375
      ],
      "min": [
        -82.50391387939453,
        -60.10567092895508,
        -80.69798278808594
      ],
      "type": "VEC3"
    },
    {
      "bufferView": 2,
      "byteOffset": 786384,
      "componentType": 5126,
      "count": 65532,
      "max": [
        0.9999251961708069,
        0.9996672868728638,
        0.9843928217887878
      ],
      "min": [
        -0.9995551109313965,
        -0.9999999403953552,
        -0.999986469745636
      ],
      "type": "VEC3"
    },
    {
      "bufferView": 1,
      "componentType": 5126,
      "count": 65532,
      "max": [
        0.9483230113983154,
        0.6539829969406128
      ],
      "min": [
        0.008871999569237232,
        0.017823999747633934
      ],
      "type": "VEC2"
    },
    {
      "bufferView": 0,
      "componentType": 5125,
      "count": 369276,
      "type": "SCALAR"
    },
    {
      "bufferView": 2,
      "byteOffset": 1572768,
      "componentType": 5126,
      "count": 65532,
      "max": [
        156.50515747070313,
        7.652145862579346,
        57.622283935546875
      ],
      "min": [
        -128.75079345703125,
        -60.09831237792969,
        -82.60494232177734
      ],
      "type": "VEC3"
    },
    {
      "bufferView": 2,
      "byteOffset": 2359152,
      "componentType": 5126,
      "count": 65532,
      "max": [
        0.999920666217804,
        0.9478558301925659,
        0.9997857809066772
      ],
      "min": [
        -0.9988806843757629,
        -0.9999596476554871,
        -0.9993312358856201
      ],
      "type": "VEC3"
    },
    {
      "bufferView": 1,
      "byteOffset": 524256,
      "componentType": 5126,
      "count": 65532,
      "max": [
        0.7380819916725159,
        0.6465200185775757
      ],
      "min": [
        0.13310199975967407,
        0.0064489999786019325
      ],
      "type": "VEC2"
    },
    {
      "bufferView": 0,
      "byteOffset": 1477104,
      "componentType": 5125,
      "count": 346944,
      "type": "SCALAR"
    },
    {
      "bufferView": 2,
      "byteOffset": 3145536,
      "componentType": 5126,
      "count": 65532,
      "max": [
        156.85894775390625,
        64.70245361328125,
        62.78146743774414
      ],
      "min": [
        -133.55516052246094,
        -59.32487487792969,
        -60.11457443237305
      ],
      "type": "VEC3"
    },
    {
      "bufferView": 2,
      "byteOffset": 3931920,
      "componentType": 5126,
      "count": 65532,
      "max": [
        0.9999251961708069,
        0.9999886155128479,
        1.0
      ],
      "min": [
        -0.9999762773513794,
        -0.9999746084213257,
        -0.8706517219543457
      ],
      "type": "VEC3"
    },
    {
      "bufferView": 1,
      "byteOffset": 1048512,
      "componentType": 5126,
      "count": 65532,
      "max": [
        0.8978639841079712,
        0.8343160152435303
      ],
      "min": [
        0.008871999569237232,
        0.18307499587535858
      ],
      "type": "VEC2"
    },
    {
      "bufferView": 0,
      "byteOffset": 2864880,
      "componentType": 5125,
      "count": 347508,
      "type": "SCALAR"
    },
    {
      "bufferView": 2,
      "byteOffset": 4718304,
      "componentType": 5126,
      "count": 65532,
      "max": [
        156.5743408203125,
        15.843147277832031,
        14.119058609008789
      ],
      "min": [
        -123.93557739257813,
        -59.880882263183594,
        -63.018775939941406
      ],
      "type": "VEC3"
    },
    {
      "bufferView": 2,
      "byteOffset": 5504688,
      "componentType": 5126,
      "count": 65532,
      "max": [
        0.999886691570282,
        0.9307138323783875,
        0.9999983310699463
      ],
      "min": [
        -0.9332156181335449,
        -0.9999773502349854,
        -0.4800884425640106
      ],
      "type": "VEC3"
    },
    {
      "bufferView": 1,
      "byteOffset": 1572768,
      "componentType": 5126,
      "count": 65532,
      "max": [
        0.2687619924545288,
        0.9532189965248108
      ],
      "min": [
        0.015583000145852566,
        0.2987790107727051
      ],
      "type": "VEC2"
    },
    {
      "bufferView": 0,
      "byteOffset": 4254912,
      "componentType": 5125,
      "count": 351564,
      "type": "SCALAR"
    },
    {
      "bufferView": 2,
      "byteOffset": 6291072,
      "componentType": 5126,
      "count": 65532,
      "max": [
        156.55404663085938,
        55.23650360107422,
        48.545223236083984
      ],
      "min": [
        -128.97119140625,
        -57.844383239746094,
        -63.07611083984375
      ],
      "type": "VEC3"
    },
    {
      "bufferView": 2,
      "byteOffset": 7077456,
      "componentType": 5126,
      "count": 65532,
      "max": [
        1.0,
        0.9929569959640503,
        0.9996472597122192
      ],
      "min": [
        -0.877085268497467,
        -0.9999961853027344,
        -0.9799389243125916
      ],
      "type": "VEC3"
    },
    {
      "bufferView": 1,
      "byteOffset": 2097024,
      "componentType": 5126,
      "count": 65532,
      "max": [
        0.30940601229667664,
        0.990759015083313
      ],
      "min": [
        0.0340379998087883,
        0.30275100469589233
      ],
      "type": "VEC2"
    },
    {
      "bufferView": 0,
      "byteOffset": 5661168,
      "componentType": 5125,
      "count": 315789,
      "type": "SCALAR"
    },
    {
      "bufferView": 2,
      "byteOffset": 7863840,
      "componentType": 5126,
      "count": 65532,
      "max": [
        152.99609375,
        73.12471771240234,
        55.500465393066406
      ],
      "min": [
        -133.5149688720703,
        -59.8934211730957,
        -63.20478057861328
      ],
      "type": "VEC3"
    },
    {
      "bufferView": 2,
      "byteOffset": 8650224,
      "componentType": 5126,
      "count": 65532,
      "max": [
        0.9966204166412354,
        0.9999731183052063,
        0.9993301630020142
      ],
      "min": [
        -0.9985027313232422,
        -0.9998998045921326,
        -0.9982002973556519
      ],
      "type": "VEC3"
    },
    {
      "bufferView": 1,
      "byteOffset": 2621280,
      "componentType": 5126,
      "count": 65532,
      "max": [
        0.7146679759025574,
        0.9911280274391174
      ],
      "min": [
        0.025220999494194984,
        0.3048950135707855
      ],
      "type": "VEC2"
    },
    {
      "bufferView": 0,
      "byteOffset": 6924324,
      "componentType": 5125,
      "count": 314394,
      "type": "SCALAR"
    },
    {
      "bufferView": 2,
      "byteOffset": 9436608,
      "componentType": 5126,
      "count": 65532,
      "max": [
        156.01345825195313,
        48.574729919433594,
        47.96464538574219
      ],
      "min": [
        -133.52569580078125,
        -46.41279983520508,
        -82.6416015625
      ],
      "type": "VEC3"
    },
    {
      "bufferView": 2,
      "byteOffset": 10222992,
      "componentType": 5126,
      "count": 65532,
      "max": [
        0.9698126316070557,
        0.9998849630355835,
        0.7944102883338928
      ],
      "min": [
        -0.9951267242431641,
        -0.6805667281150818,
        -0.99971604347229
      ],
      "type": "VEC3"
    },
    {
      "bufferView": 1,
      "byteOffset": 3145536,
      "componentType": 5126,
      "count": 65532,
      "max": [
        0.7302410006523132,
        0.9911280274391174
      ],
      "min": [
        0.32120800018310547,
        0.33494898676872253
      ],
      "type": "VEC2"
    },
    {
      "bufferView": 0,
      "byteOffset": 8181900,
      "componentType": 5125,
      "count": 338805,
      "type": "SCALAR"
    },
    {
      "bufferView": 2,
      "byteOffset": 11009376,
      "componentType": 5126,
      "count": 25207,
      "max": [
        157.31857299804688,
        73.01870727539063,
        62.740264892578125
      ],
      "min": [
        -118.67171478271484,
        -46.17724609375,
        -82.57794952392578
      ],
      "type": "VEC3"
    },
    {
      "bufferView": 2,
      "byteOffset": 11311860,
      "componentType": 5126,
      "count": 25207,
      "max": [
        0.9999958872795105,
        0.9999886155128479,
        0.999972939491272
      ],
      "min": [
        -0.9441339373588562,
        -0.9217870831489563,
        -0.9903603792190552
      ],
      "type": "VEC3"
    },
    {
      "bufferView": 1,
      "byteOffset": 3669792,
      "componentType": 5126,
      "count": 25207,
      "max": [
        0.8961949944496155,
        0.9911280274391174
      ],
      "min": [
        0.4880810081958771,
        0.33486199378967285
      ],
      "type": "VEC2"
    },
    {
      "bufferView": 0,
      "byteOffset": 9537120,
      "componentType": 5125,
      "count": 104826,
      "type": "SCALAR"
    }
  ],
  "asset": {
    "extras": {
      "author": "Cweyrich Flip flop (https://sketchfab.com/cweyrich)",
      "license": "CC-BY-4.0 (http://creativecommons.org/licenses/by/4.0/)",
      "source": "https://sketchfab.com/3d-models/adidas-flip-flop-48ed2dc6a95c4ce990e58172b366d9fd",
      "title": "Adidas Flip flop"
    },
    "generator": "Sketchfab-12.67.0",
    "version": "2.0"
  },
  "bufferViews": [
    {
      "buffer": 0,
      "byteLength": 9956424,
      "name": "floatBufferViews",
      "target": 34963
    },
    {
      "buffer": 0,
      "byteLength": 3871448,
      "byteOffset": 9956424,
      "byteStride": 8,
      "name": "floatBufferViews",
      "target": 34962
    },
    {
      "buffer": 0,
      "byteLength": 11614344,
      "byteOffset": 13827872,
      "byteStride": 12,
      "name": "floatBufferViews",
      "target": 34962
    }
  ],
  "buffers": [
    {
      "byteLength": 25442216,
      "uri": "scene.bin"
    }
  ],
  "images": [
    {
      "uri": "textures/material_0_baseColor.jpeg"
    }
  ],
  "materials": [
    {
      "doubleSided": true,
      "name": "material_0",
      "pbrMetallicRoughness": {
        "baseColorTexture": {
          "index": 0
        },
        "metallicFactor": 0.0,
        "roughnessFactor": 0.4376586748096509
      }
    }
  ],
  "meshes": [
    {
      "name": "Object_0",
      "primitives": [
        {
          "attributes": {
            "NORMAL": 1,
            "POSITION": 0,
            "TEXCOORD_0": 2
          },
          "indices": 3,
          "material": 0,
          "mode": 4
        }
      ]
    },
    {
      "name": "Object_1",
      "primitives": [
        {
          "attributes": {
            "NORMAL": 5,
            "POSITION": 4,
            "TEXCOORD_0": 6
          },
          "indices": 7,
          "material": 0,
          "mode": 4
        }
      ]
    },
    {
      "name": "Object_2",
      "primitives": [
        {
          "attributes": {
            "NORMAL": 9,
            "POSITION": 8,
            "TEXCOORD_0": 10
          },
          "indices": 11,
          "material": 0,
          "mode": 4
        }
      ]
    },
    {
      "name": "Object_3",
      "primitives": [
        {
          "attributes": {
            "NORMAL": 13,
            "POSITION": 12,
            "TEXCOORD_0": 14
          },
          "indices": 15,
          "material": 0,
          "mode": 4
        }
      ]
    },
    {
      "name": "Object_4",
      "primitives": [
        {
          "attributes": {
            "NORMAL": 17,
            "POSITION": 16,
            "TEXCOORD_0": 18
          },
          "indices": 19,
          "material": 0,
          "mode": 4
        }
      ]
    },
    {
      "name": "Object_5",
      "primitives": [
        {
          "attributes": {
            "NORMAL": 21,
            "POSITION": 20,
            "TEXCOORD_0": 22
          },
          "indices": 23,
          "material": 0,
          "mode": 4
        }
      ]
    },
    {
      "name": "Object_6",
      "primitives": [
        {
          "attributes": {
            "NORMAL": 25,
            "POSITION": 24,
            "TEXCOORD_0": 26
          },
          "indices": 27,
          "material": 0,
          "mode": 4
        }
      ]
    },
    {
      "name": "Object_7",
      "primitives": [
        {
          "attributes": {
            "NORMAL": 29,
            "POSITION": 28,
            "TEXCOORD_0": 30
          },
          "indices": 31,
          "material": 0,
          "mode": 4
        }
      ]
    }
  ],
  "nodes": [
    {
      "children": [
        1
      ],
      "matrix": [
        1.0,
        0.0,
        0.0,
        0.0,
        0.0,
        2.220446049250313e-16,
        -1.0,
        0.0,
        0.0,
        1.0,
        2.220446049250313e-16,
        0.0,
        0.0,
        0.0,
        0.0,
        1.0
      ],
      "name": "Sketchfab_model"
    },
    {
      "children": [
        2,
        3,
        4,
        5,
        6,
        7,
        8,
        9
      ],
      "name": "christian Weyrich #2.obj.cleaner.materialmerger.gles"
    },
    {
      "mesh": 0,
      "name": "Object_2"
    },
    {
      "mesh": 1,
      "name": "Object_3"
    },
    {
      "mesh": 2,
      "name": "Object_4"
    },
    {
      "mesh": 3,
      "name": "Object_5"
    },
    {
      "mesh": 4,
      "name": "Object_6"
    },
    {
      "mesh": 5,
      "name": "Object_7"
    },
    {
      "mesh": 6,
      "name": "Object_8"
    },
    {
      "mesh": 7,
      "name": "Object_9"
    }
  ],
  "samplers": [
    {
      "magFilter": 9729,
      "minFilter": 9987,
      "wrapS": 10497,
      "wrapT": 10497
    }
  ],
  "scene": 0,
  "scenes": [
    {
      "name": "Sketchfab_Scene",
      "nodes": [
        0
      ]
    }
  ],
  "textures": [
    {
      "sampler": 0,
      "source": 0
    }
  ]
}
